# xmcd
#
# Track frame offsets:
#	150
#	13757
#	27205
#	43740
#	57752
#	68910
#	84915
#	98945
#	111252
#	120815
#	137172
#	147710
#	160595
#	174187
#
# Disc length: 2579 seconds
#
# Revision: 1
# Processed by: cddbd v1.5.2PL0 Copyright (c) Steve Scherf et al.
# Submitted via: audiograbber 1.83.01
#
DISCID=b30a110e
DTITLE=VARIOS - ENCONTROS SERTANEJOS
DYEAR=1900
DGENRE=
TTITLE0=HÉLIO RIOS - REI DO GADO
TTITLE1=HÉLIO RIOS - RIO DE LÁGRIMAS
TTITLE2=IRMÃOS ANDRADE - MODA DA MULA PRETA
TTITLE3=HÉLIO RIOS - CORAÇÃO DE LUTO
TTITLE4=BELMIRO E BADALO - AS ANDORINHAS
TTITLE5=HÉLIO RIOS - FUSÇÃO PRETO
TTITLE6=CAROLINA E ROBERTINHO - FLOR NO CAFEZAL
TTITLE7=BELMIRO E BADALO - ARAPUCA
TTITLE8=CAROLINA E ROBERTINHO - LA PALOMA
TTITLE9=HÉLIO RIOS - ASA BRANCA
TTITLE10=PEDRO BENTO E ZÉ DA ESTRADA - FLORZINHA DO CAMPO
TTITLE11=HÉLIO RIOS - SAUDADE DA MINHA TERRA
TTITLE12=ATLETA E TREINADOR - A NOITE DO NOSSO AMOR
TTITLE13=SÁBADO E DOMINGO - O VAI E VEM DO CARREIRO
EXTD=
EXTT0=
EXTT1=
EXTT2=
EXTT3=
EXTT4=
EXTT5=
EXTT6=
EXTT7=
EXTT8=
EXTT9=
EXTT10=
EXTT11=
EXTT12=
EXTT13=
PLAYORDER=
